<?xml version="1.0" encoding="utf-8" ?>
<svg baseProfile="tiny" height="1024px" version="1.2" width="1024px" xmlns="http://www.w3.org/2000/svg" xmlns:ev="http://www.w3.org/2001/xml-events" xmlns:xlink="http://www.w3.org/1999/xlink"><defs />
<path d="M 460,806 L 460,809 L 459,810 L 459,813 L 458,814 L 458,815 L 457,816 L 457,817 L 451,823 L 450,823 L 449,824 L 447,824 L 446,825 L 443,825 L 442,826 L 441,826 L 442,826 L 443,827 L 446,827 L 447,828 L 448,828 L 449,829 L 450,829 L 451,830 L 452,830 L 457,835 L 457,836 L 458,837 L 458,839 L 459,840 L 459,842 L 460,843 L 460,847 L 461,847 L 461,844 L 462,843 L 462,840 L 463,839 L 463,838 L 464,837 L 464,836 L 465,835 L 465,834 L 469,830 L 470,830 L 472,828 L 474,828 L 475,827 L 477,827 L 478,826 L 480,826 L 478,826 L 477,825 L 475,825 L 474,824 L 472,824 L 471,823 L 470,823 L 469,822 L 468,822 L 464,818 L 464,817 L 463,816 L 463,815 L 462,814 L 462,811 L 461,810 L 461,806 Z" fill="black" />
<path d="M 575,765 L 575,772 L 574,773 L 574,778 L 573,779 L 573,784 L 572,785 L 572,787 L 571,788 L 571,790 L 570,791 L 570,792 L 569,793 L 569,794 L 563,800 L 562,800 L 560,802 L 558,802 L 557,803 L 555,803 L 554,804 L 551,804 L 550,805 L 547,805 L 546,806 L 542,806 L 541,807 L 543,807 L 544,808 L 548,808 L 549,809 L 552,809 L 553,810 L 556,810 L 557,811 L 559,811 L 560,812 L 561,812 L 562,813 L 563,813 L 569,819 L 569,820 L 570,821 L 570,822 L 571,823 L 571,825 L 572,826 L 572,828 L 573,829 L 573,833 L 574,834 L 574,839 L 575,840 L 575,845 L 576,846 L 576,848 L 576,845 L 577,844 L 577,839 L 578,838 L 578,833 L 579,832 L 579,828 L 580,827 L 580,825 L 581,824 L 581,822 L 582,821 L 582,820 L 589,813 L 590,813 L 591,812 L 592,812 L 593,811 L 595,811 L 596,810 L 599,810 L 600,809 L 603,809 L 604,808 L 608,808 L 609,807 L 611,807 L 610,806 L 605,806 L 604,805 L 601,805 L 600,804 L 597,804 L 596,803 L 594,803 L 593,802 L 592,802 L 591,801 L 590,801 L 589,800 L 588,800 L 583,795 L 583,794 L 582,793 L 582,792 L 581,791 L 581,790 L 580,789 L 580,787 L 579,786 L 579,782 L 578,781 L 578,776 L 577,775 L 577,769 L 576,768 L 576,765 Z" fill="black" />
<path d="M 688,711 L 687,712 L 681,712 L 681,723 L 680,724 L 679,724 L 677,726 L 676,726 L 674,728 L 673,728 L 671,730 L 670,729 L 669,729 L 667,727 L 666,727 L 664,725 L 663,725 L 662,724 L 654,732 L 654,733 L 653,734 L 653,737 L 654,738 L 655,738 L 661,744 L 661,745 L 660,746 L 660,747 L 659,748 L 659,750 L 658,751 L 658,754 L 657,755 L 656,755 L 655,756 L 653,756 L 652,757 L 651,757 L 650,758 L 648,758 L 647,759 L 646,759 L 646,767 L 647,768 L 647,770 L 648,771 L 648,772 L 649,773 L 658,773 L 660,775 L 660,776 L 661,777 L 661,778 L 663,780 L 663,781 L 665,783 L 665,785 L 664,786 L 664,787 L 663,788 L 663,790 L 662,791 L 662,792 L 661,793 L 665,797 L 666,797 L 669,800 L 670,800 L 671,801 L 672,801 L 676,797 L 677,797 L 680,794 L 681,795 L 683,795 L 684,796 L 687,796 L 688,797 L 690,797 L 691,798 L 691,800 L 692,801 L 692,804 L 693,805 L 693,807 L 694,808 L 698,808 L 699,807 L 705,807 L 706,806 L 707,807 L 707,804 L 708,803 L 708,795 L 710,793 L 711,793 L 712,792 L 713,792 L 715,790 L 716,790 L 717,789 L 718,790 L 720,790 L 721,791 L 723,791 L 724,792 L 725,792 L 726,793 L 727,793 L 728,794 L 728,793 L 733,788 L 733,787 L 736,784 L 736,783 L 735,782 L 735,781 L 731,777 L 730,777 L 728,775 L 728,774 L 729,773 L 729,771 L 730,770 L 730,763 L 731,762 L 734,762 L 735,761 L 736,761 L 737,760 L 740,760 L 740,753 L 739,752 L 739,748 L 738,747 L 738,746 L 733,746 L 732,747 L 731,746 L 730,747 L 728,745 L 728,743 L 726,741 L 726,740 L 722,736 L 723,735 L 723,734 L 724,733 L 724,732 L 725,731 L 725,730 L 726,729 L 726,728 L 719,721 L 718,721 L 716,719 L 715,719 L 709,725 L 707,725 L 706,724 L 704,724 L 703,723 L 700,723 L 699,722 L 697,722 L 696,721 L 696,713 L 694,711 Z" fill="black" />
<path d="M 551,656 L 551,675 L 549,677 L 535,677 L 535,691 L 550,691 L 551,692 L 551,696 L 550,697 L 550,712 L 564,712 L 564,703 L 563,702 L 563,692 L 564,691 L 580,691 L 580,677 L 564,677 L 563,676 L 564,675 L 564,656 Z" fill="black" />
<path d="M 498,656 L 498,677 L 497,678 L 477,678 L 477,691 L 491,691 L 492,690 L 497,690 L 498,691 L 498,712 L 501,712 L 502,713 L 510,713 L 511,712 L 511,692 L 512,691 L 526,691 L 527,690 L 529,690 L 529,678 L 512,678 L 511,677 L 511,656 Z" fill="black" />
<path d="M 894,654 L 894,658 L 893,659 L 893,664 L 892,665 L 892,669 L 891,670 L 891,671 L 890,672 L 890,673 L 889,674 L 889,675 L 888,676 L 888,677 L 885,680 L 884,680 L 883,681 L 882,681 L 881,682 L 880,682 L 879,683 L 878,683 L 877,684 L 875,684 L 874,685 L 871,685 L 870,686 L 867,686 L 867,687 L 871,687 L 872,688 L 875,688 L 876,689 L 878,689 L 879,690 L 880,690 L 881,691 L 882,691 L 884,693 L 885,693 L 888,696 L 888,697 L 890,699 L 890,700 L 891,701 L 891,703 L 892,704 L 892,708 L 893,709 L 893,714 L 894,715 L 894,719 L 895,719 L 895,715 L 896,714 L 896,710 L 897,709 L 897,705 L 898,704 L 898,702 L 899,701 L 899,700 L 900,699 L 900,698 L 906,692 L 907,692 L 908,691 L 909,691 L 910,690 L 911,690 L 912,689 L 914,689 L 915,688 L 918,688 L 919,687 L 922,687 L 922,686 L 919,686 L 918,685 L 915,685 L 914,684 L 912,684 L 911,683 L 910,683 L 909,682 L 908,682 L 907,681 L 906,681 L 900,675 L 900,674 L 899,673 L 899,672 L 898,671 L 898,670 L 897,669 L 897,666 L 896,665 L 896,660 L 895,659 L 895,654 Z" fill="black" />
<path d="M 440,647 L 439,648 L 437,648 L 436,649 L 434,649 L 433,650 L 431,650 L 430,651 L 429,651 L 428,652 L 427,652 L 424,655 L 423,655 L 418,660 L 418,661 L 416,663 L 416,664 L 415,665 L 415,666 L 414,667 L 414,668 L 413,669 L 413,671 L 412,672 L 412,674 L 411,675 L 411,681 L 410,682 L 410,690 L 411,691 L 411,696 L 412,697 L 412,700 L 413,701 L 413,702 L 414,703 L 414,704 L 415,705 L 415,706 L 416,707 L 416,708 L 418,710 L 418,711 L 422,715 L 423,715 L 426,718 L 427,718 L 428,719 L 429,719 L 430,720 L 431,720 L 432,721 L 434,721 L 435,722 L 439,722 L 440,723 L 457,723 L 458,722 L 461,722 L 462,721 L 463,721 L 463,714 L 462,713 L 462,708 L 461,708 L 460,709 L 457,709 L 456,710 L 444,710 L 443,709 L 441,709 L 440,708 L 439,708 L 438,707 L 437,707 L 431,701 L 431,700 L 430,699 L 430,698 L 429,697 L 429,695 L 428,694 L 428,691 L 427,690 L 427,681 L 428,680 L 428,677 L 429,676 L 429,674 L 430,673 L 430,672 L 432,670 L 432,669 L 437,664 L 438,664 L 439,663 L 440,663 L 441,662 L 442,662 L 443,661 L 445,661 L 446,660 L 457,660 L 458,661 L 461,661 L 462,662 L 462,654 L 463,653 L 463,649 L 462,648 L 458,648 L 457,647 Z" fill="black" />
<path d="M 407,634 L 406,635 L 404,635 L 403,636 L 401,636 L 400,637 L 398,637 L 397,638 L 395,638 L 394,639 L 392,639 L 391,640 L 390,640 L 386,644 L 385,644 L 375,654 L 374,654 L 373,655 L 373,656 L 371,658 L 371,662 L 370,663 L 370,672 L 369,673 L 369,677 L 367,679 L 366,679 L 364,681 L 363,681 L 361,683 L 360,683 L 358,685 L 357,685 L 357,690 L 359,692 L 360,692 L 365,697 L 366,697 L 370,701 L 370,715 L 371,716 L 371,718 L 372,719 L 372,720 L 382,730 L 383,730 L 386,733 L 387,733 L 390,736 L 391,736 L 394,739 L 395,739 L 396,740 L 407,740 L 408,741 L 409,741 L 409,740 L 401,732 L 401,731 L 396,726 L 395,726 L 388,719 L 388,718 L 386,716 L 386,712 L 385,711 L 385,700 L 384,699 L 385,698 L 384,697 L 384,696 L 383,696 L 376,689 L 375,689 L 374,688 L 376,686 L 377,686 L 379,684 L 380,684 L 383,681 L 384,681 L 384,669 L 385,668 L 385,664 L 386,663 L 386,662 L 399,649 L 399,648 L 400,647 L 400,646 L 401,645 L 401,644 L 402,643 L 402,642 L 403,641 L 403,640 L 405,638 L 405,637 L 407,635 Z" fill="black" />
<path d="M 788,630 L 787,631 L 783,631 L 782,632 L 782,644 L 781,645 L 779,645 L 778,646 L 775,646 L 774,647 L 773,647 L 772,648 L 770,648 L 764,642 L 760,642 L 748,654 L 748,656 L 749,657 L 749,658 L 751,660 L 751,661 L 753,663 L 753,664 L 755,666 L 755,667 L 754,668 L 754,669 L 753,670 L 753,672 L 752,673 L 752,674 L 751,675 L 749,675 L 748,676 L 743,676 L 742,677 L 738,677 L 738,697 L 739,698 L 742,698 L 743,699 L 751,699 L 753,701 L 753,703 L 754,704 L 754,705 L 755,706 L 755,708 L 751,712 L 751,713 L 748,716 L 748,719 L 750,721 L 750,722 L 760,732 L 764,732 L 771,725 L 772,725 L 773,726 L 774,726 L 775,727 L 777,727 L 778,728 L 780,728 L 782,730 L 782,740 L 784,742 L 802,742 L 803,741 L 804,741 L 804,729 L 805,728 L 807,728 L 809,726 L 811,726 L 812,725 L 813,725 L 814,724 L 818,728 L 819,728 L 823,732 L 825,732 L 838,719 L 838,718 L 835,715 L 835,714 L 833,712 L 833,711 L 830,708 L 830,707 L 831,706 L 831,705 L 832,704 L 832,702 L 833,701 L 833,700 L 835,698 L 841,698 L 842,697 L 847,697 L 847,678 L 846,677 L 845,677 L 844,676 L 836,676 L 835,675 L 834,676 L 832,674 L 832,672 L 831,671 L 831,669 L 830,668 L 830,666 L 831,665 L 831,664 L 833,662 L 833,661 L 834,660 L 834,659 L 836,657 L 836,656 L 837,655 L 835,653 L 835,652 L 824,641 L 821,641 L 814,648 L 811,648 L 810,647 L 809,647 L 808,646 L 807,646 L 806,645 L 805,645 L 804,644 L 804,639 L 803,638 L 803,636 L 804,635 L 804,634 L 803,633 L 803,632 L 802,631 L 798,631 L 797,630 Z" fill="black" />
<path d="M 292,625 L 292,628 L 291,629 L 291,634 L 290,635 L 290,641 L 289,642 L 289,647 L 288,648 L 288,652 L 287,653 L 287,655 L 286,656 L 286,657 L 285,658 L 285,659 L 284,660 L 284,661 L 282,663 L 282,664 L 280,666 L 279,666 L 277,668 L 276,668 L 275,669 L 274,669 L 273,670 L 271,670 L 270,671 L 268,671 L 267,672 L 264,672 L 263,673 L 260,673 L 259,674 L 255,674 L 254,675 L 253,675 L 254,675 L 255,676 L 259,676 L 260,677 L 264,677 L 265,678 L 268,678 L 269,679 L 271,679 L 272,680 L 274,680 L 275,681 L 276,681 L 278,683 L 279,683 L 283,687 L 283,688 L 285,690 L 285,691 L 286,692 L 286,693 L 287,694 L 287,697 L 288,698 L 288,701 L 289,702 L 289,706 L 290,707 L 290,712 L 291,713 L 291,718 L 292,719 L 292,723 L 293,723 L 293,717 L 294,716 L 294,710 L 295,709 L 295,704 L 296,703 L 296,699 L 297,698 L 297,695 L 298,694 L 298,693 L 299,692 L 299,691 L 300,690 L 300,689 L 302,687 L 302,686 L 303,685 L 304,685 L 307,682 L 308,682 L 309,681 L 310,681 L 311,680 L 313,680 L 314,679 L 317,679 L 318,678 L 321,678 L 322,677 L 325,677 L 326,676 L 330,676 L 331,675 L 332,675 L 330,675 L 329,674 L 325,674 L 324,673 L 320,673 L 319,672 L 316,672 L 315,671 L 313,671 L 312,670 L 311,670 L 310,669 L 309,669 L 308,668 L 307,668 L 300,661 L 300,660 L 299,659 L 299,658 L 298,657 L 298,655 L 297,654 L 297,652 L 296,651 L 296,647 L 295,646 L 295,642 L 294,641 L 294,635 L 293,634 L 293,629 L 292,628 Z" fill="black" />
<path d="M 101,625 L 101,626 L 100,627 L 100,628 L 99,629 L 99,631 L 98,632 L 98,633 L 97,634 L 97,636 L 96,637 L 96,638 L 95,639 L 95,641 L 94,642 L 94,644 L 93,645 L 93,646 L 92,647 L 92,649 L 91,650 L 91,653 L 90,654 L 90,656 L 89,657 L 89,660 L 88,661 L 88,665 L 87,666 L 87,670 L 86,671 L 86,678 L 85,679 L 85,702 L 86,703 L 86,709 L 87,710 L 87,714 L 88,715 L 88,718 L 89,719 L 89,721 L 90,722 L 90,725 L 91,726 L 91,727 L 92,728 L 92,730 L 93,731 L 93,732 L 94,733 L 94,735 L 95,736 L 95,737 L 96,738 L 96,739 L 97,740 L 97,741 L 99,743 L 99,744 L 100,745 L 100,746 L 102,748 L 102,749 L 105,752 L 105,753 L 108,756 L 108,757 L 123,772 L 124,772 L 128,776 L 129,776 L 132,779 L 133,779 L 135,781 L 136,781 L 137,782 L 138,782 L 140,784 L 141,784 L 142,785 L 143,785 L 145,787 L 146,787 L 147,788 L 148,788 L 149,789 L 150,789 L 151,790 L 152,790 L 153,791 L 154,791 L 155,792 L 156,792 L 157,793 L 158,793 L 159,794 L 160,794 L 161,795 L 163,795 L 164,796 L 165,796 L 166,797 L 168,797 L 169,798 L 170,798 L 171,799 L 173,799 L 174,800 L 175,800 L 176,801 L 178,801 L 179,802 L 181,802 L 182,803 L 185,803 L 186,804 L 188,804 L 189,805 L 191,805 L 192,806 L 195,806 L 196,807 L 199,807 L 200,808 L 203,808 L 204,809 L 208,809 L 209,810 L 213,810 L 214,811 L 219,811 L 220,812 L 226,812 L 227,813 L 234,813 L 235,814 L 243,814 L 244,815 L 265,815 L 266,816 L 281,816 L 282,815 L 302,815 L 303,814 L 315,814 L 316,813 L 323,813 L 324,812 L 332,812 L 333,811 L 339,811 L 327,811 L 326,812 L 292,812 L 291,811 L 274,811 L 273,810 L 261,810 L 260,809 L 253,809 L 252,808 L 246,808 L 245,807 L 240,807 L 239,806 L 235,806 L 234,805 L 229,805 L 228,804 L 224,804 L 223,803 L 220,803 L 219,802 L 216,802 L 215,801 L 212,801 L 211,800 L 208,800 L 207,799 L 205,799 L 204,798 L 202,798 L 201,797 L 198,797 L 197,796 L 195,796 L 194,795 L 192,795 L 191,794 L 190,794 L 189,793 L 187,793 L 186,792 L 185,792 L 184,791 L 182,791 L 181,790 L 180,790 L 179,789 L 177,789 L 176,788 L 175,788 L 174,787 L 173,787 L 172,786 L 171,786 L 170,785 L 168,785 L 167,784 L 166,784 L 165,783 L 164,783 L 163,782 L 162,782 L 160,780 L 159,780 L 158,779 L 157,779 L 156,778 L 155,778 L 153,776 L 152,776 L 151,775 L 150,775 L 148,773 L 147,773 L 145,771 L 144,771 L 141,768 L 140,768 L 137,765 L 136,765 L 129,758 L 128,758 L 122,752 L 122,751 L 116,745 L 116,744 L 113,741 L 113,740 L 111,738 L 111,737 L 109,735 L 109,734 L 107,732 L 107,731 L 106,730 L 106,729 L 105,728 L 105,727 L 104,726 L 104,725 L 103,724 L 103,723 L 102,722 L 102,721 L 101,720 L 101,718 L 100,717 L 100,716 L 99,715 L 99,713 L 98,712 L 98,710 L 97,709 L 97,707 L 96,706 L 96,703 L 95,702 L 95,699 L 94,698 L 94,693 L 93,692 L 93,684 L 92,683 L 92,666 L 93,665 L 93,657 L 94,656 L 94,651 L 95,650 L 95,646 L 96,645 L 96,642 L 97,641 L 97,637 L 98,636 L 98,634 L 99,633 L 99,631 L 100,630 L 100,628 L 101,627 Z" fill="black" />
<path d="M 654,332 L 653,333 L 653,335 L 652,336 L 652,341 L 650,343 L 649,343 L 646,346 L 645,346 L 643,344 L 642,344 L 641,343 L 640,343 L 638,341 L 638,342 L 633,347 L 633,348 L 631,350 L 631,351 L 629,353 L 629,354 L 632,357 L 633,357 L 636,360 L 636,370 L 635,371 L 634,371 L 632,373 L 631,373 L 629,375 L 629,376 L 631,378 L 631,379 L 633,381 L 633,382 L 638,387 L 640,387 L 644,383 L 646,385 L 647,385 L 648,386 L 650,386 L 652,388 L 652,396 L 653,397 L 666,397 L 667,396 L 668,396 L 668,389 L 667,388 L 668,387 L 669,387 L 671,385 L 672,385 L 674,383 L 675,383 L 676,382 L 679,385 L 680,385 L 681,386 L 683,386 L 688,381 L 688,380 L 689,379 L 689,378 L 690,377 L 690,375 L 691,374 L 691,373 L 690,373 L 688,371 L 687,371 L 686,370 L 685,370 L 684,369 L 684,365 L 683,364 L 683,360 L 688,355 L 689,355 L 691,353 L 690,352 L 690,351 L 688,349 L 688,348 L 686,346 L 686,345 L 685,344 L 684,344 L 682,342 L 681,342 L 678,345 L 677,345 L 675,347 L 673,345 L 672,345 L 671,344 L 670,344 L 669,343 L 668,343 L 667,342 L 667,338 L 668,337 L 668,335 L 667,334 L 667,333 L 664,333 L 663,332 Z" fill="black" />
<path d="M 526,330 L 525,331 L 524,331 L 522,333 L 521,333 L 518,336 L 517,336 L 515,338 L 514,338 L 511,341 L 510,341 L 507,344 L 506,344 L 504,346 L 503,346 L 500,349 L 499,349 L 496,352 L 495,352 L 492,355 L 492,361 L 495,364 L 496,364 L 500,368 L 501,368 L 505,372 L 506,372 L 511,377 L 512,377 L 517,382 L 518,382 L 523,387 L 524,387 L 526,389 L 527,389 L 526,388 L 526,373 L 524,371 L 523,371 L 519,367 L 518,367 L 515,364 L 514,364 L 512,362 L 511,362 L 508,359 L 514,353 L 515,353 L 518,350 L 519,350 L 522,347 L 523,347 L 525,345 L 526,345 L 526,332 L 527,331 L 527,330 Z" fill="black" />
<path d="M 366,297 L 366,301 L 365,302 L 365,305 L 364,306 L 364,307 L 363,308 L 363,309 L 359,313 L 358,313 L 357,314 L 356,314 L 355,315 L 354,315 L 353,316 L 350,316 L 349,317 L 350,317 L 351,318 L 354,318 L 355,319 L 356,319 L 357,320 L 358,320 L 363,325 L 363,326 L 364,327 L 364,328 L 365,329 L 365,332 L 366,333 L 366,337 L 367,337 L 367,333 L 368,332 L 368,330 L 369,329 L 369,327 L 371,325 L 371,324 L 374,321 L 375,321 L 377,319 L 378,319 L 379,318 L 381,318 L 382,317 L 384,317 L 383,317 L 382,316 L 380,316 L 379,315 L 377,315 L 376,314 L 375,314 L 370,309 L 370,308 L 369,307 L 369,306 L 368,305 L 368,302 L 367,301 L 367,297 Z" fill="black" />
<path d="M 827,265 L 827,272 L 828,273 L 828,276 L 829,277 L 829,278 L 830,279 L 830,280 L 831,281 L 831,282 L 837,288 L 838,288 L 839,289 L 840,289 L 842,291 L 843,291 L 846,294 L 846,295 L 847,296 L 847,306 L 846,307 L 846,310 L 845,311 L 845,314 L 844,315 L 844,318 L 855,329 L 855,330 L 858,333 L 858,334 L 860,336 L 860,337 L 862,339 L 862,340 L 863,341 L 863,342 L 864,343 L 864,344 L 865,345 L 865,346 L 866,347 L 866,349 L 867,350 L 867,352 L 868,353 L 868,355 L 869,356 L 869,360 L 870,361 L 870,372 L 871,373 L 871,376 L 870,377 L 870,386 L 869,387 L 869,392 L 868,393 L 868,396 L 867,397 L 867,400 L 866,401 L 866,403 L 865,404 L 865,406 L 864,407 L 864,409 L 863,410 L 863,411 L 862,412 L 862,413 L 861,414 L 861,416 L 860,417 L 860,418 L 859,419 L 859,420 L 858,421 L 858,422 L 856,424 L 856,425 L 855,426 L 855,427 L 854,428 L 854,429 L 851,432 L 850,431 L 787,431 L 787,432 L 786,433 L 786,434 L 785,435 L 785,436 L 783,438 L 783,439 L 782,440 L 782,441 L 781,442 L 781,443 L 779,445 L 779,446 L 778,447 L 778,448 L 777,449 L 777,450 L 776,451 L 776,452 L 774,454 L 774,455 L 773,456 L 773,457 L 772,458 L 772,459 L 771,460 L 771,461 L 770,462 L 770,463 L 769,464 L 769,465 L 767,467 L 766,466 L 766,439 L 765,438 L 765,432 L 704,432 L 704,434 L 703,435 L 702,435 L 701,434 L 699,434 L 698,433 L 697,433 L 696,432 L 693,432 L 692,431 L 688,431 L 687,430 L 647,430 L 646,431 L 637,431 L 636,432 L 632,432 L 631,433 L 627,433 L 626,434 L 624,434 L 623,435 L 621,435 L 620,436 L 619,436 L 618,437 L 617,437 L 616,438 L 615,438 L 614,439 L 613,439 L 612,438 L 612,436 L 613,435 L 613,429 L 614,428 L 614,421 L 615,420 L 615,408 L 616,407 L 616,404 L 618,402 L 620,402 L 622,404 L 623,404 L 624,405 L 625,405 L 626,406 L 628,406 L 629,405 L 629,404 L 633,400 L 633,399 L 632,398 L 632,397 L 629,394 L 629,393 L 626,390 L 626,389 L 623,386 L 623,385 L 620,382 L 618,382 L 615,385 L 614,385 L 612,387 L 610,387 L 609,388 L 605,388 L 604,389 L 596,389 L 595,388 L 591,388 L 590,387 L 588,387 L 587,386 L 586,386 L 585,385 L 584,385 L 582,383 L 581,383 L 576,378 L 576,377 L 574,375 L 574,374 L 573,373 L 573,372 L 572,371 L 572,369 L 571,368 L 571,357 L 572,356 L 572,353 L 573,352 L 573,350 L 574,349 L 574,348 L 576,346 L 576,345 L 582,339 L 583,339 L 584,338 L 585,338 L 586,337 L 587,337 L 588,336 L 589,336 L 590,335 L 592,335 L 593,334 L 606,334 L 607,335 L 609,335 L 610,336 L 611,336 L 613,338 L 614,338 L 617,341 L 620,341 L 625,336 L 625,335 L 629,331 L 629,330 L 635,324 L 635,323 L 634,322 L 633,322 L 631,320 L 630,320 L 629,319 L 627,319 L 626,318 L 625,319 L 624,319 L 620,323 L 618,323 L 616,321 L 615,321 L 614,320 L 613,320 L 612,319 L 610,319 L 609,318 L 608,318 L 607,317 L 608,316 L 607,315 L 607,314 L 608,313 L 608,309 L 607,309 L 606,308 L 605,308 L 604,307 L 594,307 L 593,308 L 591,308 L 591,312 L 590,313 L 590,316 L 591,317 L 590,318 L 588,318 L 587,319 L 586,319 L 585,320 L 583,320 L 582,321 L 581,321 L 580,322 L 579,322 L 578,323 L 577,323 L 576,324 L 575,324 L 573,322 L 570,322 L 568,320 L 567,320 L 566,319 L 564,319 L 561,322 L 560,322 L 557,325 L 556,325 L 555,326 L 555,327 L 558,330 L 558,331 L 560,333 L 560,334 L 561,335 L 561,336 L 562,337 L 562,338 L 559,341 L 559,342 L 558,343 L 558,344 L 557,345 L 545,345 L 545,363 L 548,363 L 549,364 L 554,364 L 556,366 L 556,371 L 557,372 L 557,375 L 558,376 L 558,377 L 549,386 L 549,388 L 554,393 L 554,394 L 555,395 L 554,396 L 554,399 L 553,400 L 553,402 L 552,403 L 552,406 L 551,407 L 551,409 L 550,410 L 550,413 L 549,414 L 549,417 L 548,418 L 548,421 L 547,422 L 547,425 L 546,426 L 546,429 L 544,431 L 533,431 L 532,432 L 524,432 L 523,433 L 518,433 L 517,434 L 515,434 L 514,435 L 512,435 L 511,436 L 509,436 L 507,438 L 506,437 L 506,435 L 507,434 L 507,432 L 498,432 L 497,433 L 496,433 L 495,432 L 495,428 L 496,427 L 496,423 L 497,422 L 497,418 L 498,417 L 498,414 L 499,413 L 499,409 L 500,408 L 500,404 L 501,403 L 501,400 L 502,399 L 501,398 L 451,398 L 450,397 L 450,395 L 451,394 L 451,390 L 452,389 L 452,386 L 413,386 L 412,387 L 396,387 L 395,388 L 389,388 L 388,389 L 384,389 L 383,390 L 381,390 L 380,391 L 378,391 L 377,392 L 375,392 L 374,393 L 373,393 L 372,394 L 371,394 L 369,396 L 368,396 L 363,401 L 362,401 L 362,402 L 359,405 L 359,406 L 357,408 L 357,409 L 356,410 L 356,411 L 355,412 L 355,413 L 354,414 L 354,415 L 353,416 L 353,417 L 352,418 L 352,420 L 351,421 L 351,422 L 350,423 L 350,425 L 349,426 L 349,428 L 348,429 L 348,431 L 347,432 L 347,434 L 346,435 L 346,438 L 345,439 L 336,439 L 335,438 L 334,438 L 333,437 L 332,437 L 331,436 L 330,436 L 329,435 L 327,435 L 326,434 L 324,434 L 323,433 L 320,433 L 319,432 L 313,432 L 312,431 L 292,431 L 291,432 L 277,432 L 276,433 L 270,433 L 269,434 L 266,434 L 265,435 L 263,435 L 262,436 L 260,436 L 259,437 L 258,437 L 257,438 L 256,438 L 255,439 L 254,439 L 253,438 L 253,433 L 252,432 L 252,429 L 251,428 L 251,426 L 250,425 L 250,423 L 249,422 L 249,421 L 248,420 L 248,419 L 247,418 L 247,417 L 243,413 L 243,412 L 241,410 L 240,410 L 236,406 L 235,406 L 234,405 L 233,405 L 232,404 L 231,404 L 230,403 L 228,403 L 227,402 L 225,402 L 224,401 L 221,401 L 220,400 L 215,400 L 214,399 L 102,399 L 102,401 L 103,402 L 103,403 L 104,404 L 104,405 L 105,406 L 105,407 L 106,408 L 106,410 L 107,411 L 107,412 L 108,413 L 108,414 L 109,415 L 109,416 L 110,417 L 110,418 L 111,419 L 111,421 L 112,422 L 112,423 L 113,424 L 113,425 L 114,426 L 114,427 L 115,428 L 115,429 L 116,430 L 115,431 L 115,434 L 114,435 L 114,438 L 113,439 L 113,442 L 112,443 L 112,446 L 111,447 L 111,450 L 110,451 L 110,454 L 109,455 L 109,458 L 108,459 L 108,462 L 107,463 L 107,466 L 106,467 L 106,469 L 105,470 L 105,473 L 104,474 L 104,477 L 103,478 L 103,481 L 102,482 L 102,485 L 101,486 L 101,489 L 100,490 L 100,493 L 99,494 L 99,497 L 98,498 L 98,501 L 97,502 L 97,505 L 96,506 L 96,509 L 95,510 L 95,513 L 94,514 L 94,517 L 93,518 L 93,521 L 92,522 L 92,525 L 91,526 L 91,529 L 90,530 L 90,533 L 89,534 L 89,537 L 88,538 L 88,541 L 87,542 L 87,545 L 86,546 L 86,549 L 85,550 L 85,553 L 84,554 L 84,557 L 83,558 L 83,560 L 82,561 L 82,564 L 81,565 L 81,566 L 80,567 L 80,568 L 78,570 L 78,571 L 76,573 L 76,574 L 71,579 L 71,580 L 66,585 L 66,586 L 59,593 L 59,594 L 55,598 L 55,599 L 56,600 L 56,601 L 59,604 L 59,605 L 62,608 L 62,609 L 64,611 L 121,611 L 122,610 L 123,611 L 123,612 L 122,613 L 122,615 L 121,616 L 121,618 L 120,619 L 120,621 L 119,622 L 119,625 L 118,626 L 118,628 L 117,629 L 117,632 L 116,633 L 116,637 L 115,638 L 115,642 L 114,643 L 114,649 L 113,650 L 113,678 L 114,679 L 114,684 L 115,685 L 115,689 L 116,690 L 116,692 L 117,693 L 117,696 L 118,697 L 118,699 L 119,700 L 119,701 L 120,702 L 120,704 L 121,705 L 121,706 L 122,707 L 122,708 L 123,709 L 123,710 L 124,711 L 124,712 L 125,713 L 125,714 L 126,715 L 126,716 L 128,718 L 128,719 L 130,721 L 130,722 L 132,724 L 132,725 L 137,730 L 137,731 L 148,742 L 149,742 L 153,746 L 154,746 L 157,749 L 158,749 L 161,752 L 162,752 L 164,754 L 165,754 L 167,756 L 168,756 L 169,757 L 170,757 L 172,759 L 173,759 L 174,760 L 175,760 L 176,761 L 177,761 L 178,762 L 179,762 L 181,764 L 182,764 L 183,765 L 184,765 L 185,766 L 187,766 L 188,767 L 189,767 L 190,768 L 191,768 L 192,769 L 193,769 L 194,770 L 196,770 L 197,771 L 198,771 L 199,772 L 201,772 L 202,773 L 203,773 L 204,774 L 206,774 L 207,775 L 209,775 L 210,776 L 212,776 L 213,777 L 215,777 L 216,778 L 219,778 L 220,779 L 222,779 L 223,780 L 226,780 L 227,781 L 230,781 L 231,782 L 234,782 L 235,783 L 239,783 L 240,784 L 243,784 L 244,785 L 248,785 L 249,786 L 254,786 L 255,787 L 260,787 L 261,788 L 267,788 L 268,789 L 276,789 L 277,790 L 287,790 L 288,791 L 306,791 L 307,792 L 334,792 L 335,791 L 352,791 L 353,790 L 364,790 L 365,789 L 374,789 L 375,788 L 382,788 L 383,787 L 389,787 L 390,786 L 396,786 L 397,785 L 402,785 L 403,784 L 408,784 L 409,783 L 413,783 L 414,782 L 418,782 L 419,781 L 423,781 L 424,780 L 428,780 L 429,779 L 433,779 L 434,778 L 437,778 L 438,777 L 442,777 L 443,776 L 446,776 L 447,775 L 450,775 L 451,774 L 454,774 L 455,773 L 457,773 L 458,772 L 461,772 L 462,771 L 465,771 L 466,770 L 469,770 L 470,769 L 472,769 L 473,768 L 475,768 L 476,767 L 479,767 L 480,766 L 482,766 L 483,765 L 485,765 L 486,764 L 488,764 L 489,763 L 491,763 L 492,762 L 495,762 L 496,761 L 497,761 L 498,760 L 500,760 L 501,759 L 503,759 L 504,758 L 506,758 L 507,757 L 509,757 L 510,756 L 512,756 L 513,755 L 514,755 L 515,754 L 517,754 L 518,753 L 520,753 L 521,752 L 522,752 L 523,751 L 525,751 L 526,750 L 528,750 L 529,749 L 530,749 L 531,748 L 533,748 L 534,747 L 535,747 L 536,746 L 538,746 L 539,745 L 540,745 L 541,744 L 543,744 L 544,743 L 546,743 L 547,742 L 548,742 L 549,741 L 551,741 L 552,740 L 553,740 L 554,739 L 556,739 L 557,738 L 558,738 L 559,737 L 561,737 L 562,736 L 563,736 L 564,735 L 565,735 L 566,734 L 568,734 L 569,733 L 570,733 L 571,732 L 572,732 L 574,730 L 574,729 L 581,722 L 581,721 L 586,716 L 586,715 L 591,710 L 591,709 L 596,704 L 596,703 L 600,699 L 600,698 L 605,693 L 605,692 L 608,689 L 608,684 L 607,683 L 607,682 L 602,677 L 602,676 L 594,668 L 594,667 L 585,658 L 585,657 L 574,646 L 575,647 L 575,648 L 579,652 L 579,653 L 583,657 L 583,658 L 587,662 L 587,663 L 591,667 L 591,668 L 595,672 L 595,673 L 601,679 L 601,680 L 608,687 L 599,696 L 598,696 L 571,723 L 570,723 L 569,724 L 563,724 L 562,725 L 542,725 L 541,726 L 540,726 L 539,727 L 537,727 L 536,728 L 534,728 L 533,729 L 532,729 L 531,730 L 529,730 L 528,731 L 526,731 L 525,732 L 523,732 L 522,733 L 520,733 L 519,734 L 517,734 L 516,735 L 514,735 L 513,736 L 511,736 L 510,737 L 508,737 L 507,738 L 505,738 L 504,739 L 502,739 L 501,740 L 498,740 L 497,741 L 495,741 L 494,742 L 491,742 L 490,743 L 488,743 L 487,744 L 484,744 L 483,745 L 480,745 L 479,746 L 475,746 L 474,747 L 471,747 L 470,748 L 466,748 L 465,749 L 460,749 L 459,750 L 454,750 L 453,751 L 446,751 L 445,752 L 432,752 L 431,753 L 397,753 L 396,752 L 385,752 L 384,753 L 367,753 L 366,754 L 318,754 L 317,753 L 304,753 L 303,752 L 295,752 L 294,751 L 288,751 L 287,750 L 281,750 L 280,749 L 275,749 L 274,748 L 270,748 L 269,747 L 265,747 L 264,746 L 260,746 L 259,745 L 256,745 L 255,744 L 252,744 L 251,743 L 249,743 L 248,742 L 246,742 L 245,741 L 243,741 L 242,740 L 239,740 L 238,739 L 237,739 L 236,738 L 234,738 L 233,737 L 231,737 L 230,736 L 229,736 L 228,735 L 227,735 L 226,734 L 224,734 L 223,733 L 222,733 L 221,732 L 220,732 L 219,731 L 218,731 L 217,730 L 216,730 L 215,729 L 214,729 L 212,727 L 211,727 L 210,726 L 209,726 L 208,725 L 207,725 L 205,723 L 204,723 L 202,721 L 201,721 L 198,718 L 197,718 L 193,714 L 192,714 L 182,704 L 182,703 L 178,699 L 178,698 L 176,696 L 176,695 L 174,693 L 174,692 L 173,691 L 173,690 L 171,688 L 171,687 L 170,686 L 170,684 L 169,683 L 169,682 L 168,681 L 168,680 L 167,679 L 167,677 L 166,676 L 166,674 L 165,673 L 165,670 L 164,669 L 164,665 L 163,664 L 163,657 L 162,656 L 162,642 L 163,641 L 163,633 L 164,632 L 164,628 L 165,627 L 165,624 L 166,623 L 166,621 L 167,620 L 167,617 L 168,616 L 168,615 L 169,614 L 169,612 L 170,611 L 170,609 L 171,608 L 178,608 L 179,607 L 183,607 L 184,606 L 186,606 L 187,605 L 189,605 L 190,604 L 192,604 L 193,603 L 194,603 L 195,602 L 196,602 L 197,601 L 198,601 L 199,600 L 200,600 L 202,598 L 203,598 L 205,596 L 206,596 L 208,598 L 208,599 L 216,607 L 217,607 L 218,608 L 219,608 L 220,609 L 221,609 L 222,610 L 224,610 L 225,611 L 227,611 L 228,612 L 233,612 L 234,613 L 246,613 L 247,612 L 252,612 L 253,611 L 257,611 L 258,610 L 260,610 L 261,609 L 264,609 L 265,610 L 265,611 L 380,611 L 380,609 L 381,608 L 381,605 L 382,604 L 382,601 L 383,600 L 383,596 L 384,595 L 384,592 L 385,591 L 385,588 L 386,587 L 386,584 L 387,583 L 387,580 L 388,579 L 388,577 L 389,576 L 389,573 L 390,572 L 390,569 L 391,568 L 391,565 L 392,564 L 392,560 L 393,559 L 394,560 L 394,567 L 393,568 L 393,577 L 394,578 L 394,583 L 395,584 L 395,587 L 396,588 L 396,590 L 397,591 L 397,592 L 398,593 L 398,594 L 399,595 L 399,596 L 400,597 L 400,598 L 408,606 L 409,606 L 410,607 L 411,607 L 412,608 L 414,608 L 415,609 L 418,609 L 419,610 L 426,610 L 427,611 L 469,611 L 470,610 L 470,606 L 471,605 L 473,607 L 474,607 L 476,609 L 477,609 L 478,610 L 480,610 L 481,611 L 484,611 L 485,612 L 504,612 L 505,611 L 508,611 L 509,610 L 513,610 L 514,611 L 579,611 L 579,608 L 580,607 L 580,605 L 581,604 L 583,606 L 584,606 L 585,607 L 586,607 L 587,608 L 589,608 L 590,609 L 592,609 L 593,610 L 596,610 L 597,611 L 604,611 L 605,612 L 643,612 L 644,611 L 651,611 L 652,610 L 657,610 L 658,609 L 662,609 L 663,608 L 665,608 L 666,607 L 668,607 L 669,606 L 671,606 L 672,605 L 673,605 L 674,604 L 675,604 L 676,603 L 677,603 L 678,602 L 679,602 L 680,601 L 681,601 L 684,598 L 685,598 L 691,592 L 691,591 L 694,588 L 694,587 L 695,586 L 695,585 L 697,583 L 697,582 L 698,581 L 698,580 L 699,579 L 699,578 L 700,577 L 701,578 L 701,593 L 702,594 L 702,601 L 703,602 L 704,601 L 705,602 L 721,602 L 722,603 L 718,607 L 717,607 L 714,610 L 713,610 L 709,614 L 708,614 L 705,617 L 704,617 L 703,618 L 702,618 L 700,620 L 699,620 L 696,623 L 695,623 L 693,625 L 692,625 L 690,627 L 689,627 L 687,629 L 686,629 L 684,631 L 683,631 L 681,633 L 680,633 L 678,635 L 677,635 L 675,637 L 674,637 L 672,639 L 671,639 L 669,641 L 668,641 L 667,642 L 666,642 L 664,644 L 663,644 L 661,646 L 660,646 L 659,647 L 658,647 L 656,649 L 655,649 L 653,651 L 652,651 L 651,652 L 650,652 L 648,654 L 647,654 L 646,655 L 645,655 L 643,657 L 642,657 L 641,658 L 640,658 L 638,660 L 637,660 L 636,661 L 635,661 L 633,663 L 632,663 L 631,664 L 630,664 L 629,665 L 628,665 L 626,667 L 625,667 L 624,668 L 623,668 L 622,669 L 621,669 L 620,670 L 619,670 L 617,672 L 616,672 L 615,673 L 615,675 L 616,676 L 616,677 L 617,678 L 617,679 L 618,680 L 618,681 L 619,682 L 619,685 L 620,686 L 620,690 L 619,691 L 619,693 L 617,695 L 617,696 L 613,700 L 613,701 L 610,704 L 610,705 L 606,709 L 606,710 L 602,714 L 602,715 L 599,718 L 600,718 L 601,717 L 602,717 L 603,716 L 604,716 L 605,715 L 607,715 L 608,714 L 609,714 L 610,713 L 611,713 L 612,712 L 613,712 L 614,711 L 615,711 L 616,710 L 617,710 L 618,709 L 619,709 L 620,708 L 621,708 L 622,707 L 623,707 L 624,706 L 625,706 L 627,704 L 628,704 L 629,703 L 630,703 L 631,702 L 632,702 L 633,701 L 634,701 L 635,700 L 636,700 L 638,698 L 639,698 L 640,697 L 641,697 L 642,696 L 643,696 L 645,694 L 646,694 L 647,693 L 648,693 L 649,692 L 650,692 L 652,690 L 653,690 L 655,688 L 656,688 L 657,687 L 658,687 L 660,685 L 661,685 L 663,683 L 664,683 L 665,682 L 666,682 L 668,680 L 669,680 L 671,678 L 672,678 L 674,676 L 675,676 L 677,674 L 678,674 L 680,672 L 681,672 L 683,670 L 684,670 L 686,668 L 687,668 L 689,666 L 690,666 L 692,664 L 693,664 L 695,662 L 696,662 L 698,660 L 699,660 L 702,657 L 703,657 L 705,655 L 706,655 L 709,652 L 710,652 L 712,650 L 713,650 L 716,647 L 717,647 L 720,644 L 721,644 L 723,642 L 724,642 L 728,638 L 729,638 L 732,635 L 733,635 L 736,632 L 737,632 L 741,628 L 742,628 L 745,625 L 746,625 L 750,621 L 751,621 L 754,618 L 755,618 L 758,615 L 759,615 L 761,613 L 762,613 L 764,611 L 765,611 L 767,609 L 768,609 L 772,605 L 774,605 L 775,606 L 779,606 L 780,605 L 780,604 L 781,603 L 781,602 L 782,601 L 782,600 L 783,599 L 783,598 L 784,597 L 784,596 L 785,595 L 785,594 L 786,593 L 786,592 L 787,591 L 787,590 L 788,589 L 788,588 L 789,587 L 789,586 L 790,585 L 790,584 L 792,582 L 793,583 L 793,588 L 794,589 L 794,591 L 795,592 L 795,593 L 796,594 L 796,595 L 797,596 L 797,597 L 804,604 L 805,604 L 807,606 L 808,606 L 809,607 L 811,607 L 812,608 L 814,608 L 815,609 L 817,609 L 818,610 L 823,610 L 824,611 L 831,611 L 832,612 L 863,612 L 864,611 L 872,611 L 873,610 L 879,610 L 880,609 L 883,609 L 884,608 L 887,608 L 888,607 L 891,607 L 892,606 L 893,606 L 894,605 L 896,605 L 897,604 L 898,604 L 899,603 L 900,603 L 901,602 L 902,602 L 903,601 L 904,601 L 906,599 L 907,599 L 914,592 L 914,591 L 916,589 L 916,588 L 918,586 L 918,585 L 919,584 L 919,583 L 920,582 L 920,581 L 921,580 L 921,578 L 922,577 L 922,576 L 923,575 L 923,573 L 924,572 L 924,569 L 925,568 L 925,566 L 926,565 L 926,562 L 927,561 L 927,557 L 928,556 L 928,552 L 929,551 L 929,546 L 930,545 L 930,538 L 931,537 L 931,521 L 930,520 L 930,517 L 929,516 L 929,514 L 930,513 L 938,513 L 938,511 L 939,510 L 939,506 L 940,505 L 940,500 L 941,499 L 941,496 L 942,495 L 942,491 L 943,490 L 943,487 L 944,486 L 944,482 L 945,481 L 945,476 L 946,475 L 946,458 L 945,457 L 945,454 L 944,453 L 944,451 L 943,450 L 943,449 L 942,448 L 942,447 L 941,446 L 941,445 L 933,437 L 932,437 L 931,436 L 930,436 L 929,435 L 928,435 L 927,434 L 926,434 L 925,433 L 923,433 L 922,432 L 920,432 L 919,431 L 915,431 L 914,430 L 908,430 L 907,429 L 888,429 L 887,428 L 887,427 L 888,426 L 888,425 L 889,424 L 889,422 L 890,421 L 890,420 L 891,419 L 891,417 L 892,416 L 892,415 L 893,414 L 893,412 L 894,411 L 894,409 L 895,408 L 895,406 L 896,405 L 896,403 L 897,402 L 897,400 L 898,399 L 898,397 L 899,396 L 899,393 L 900,392 L 900,390 L 901,389 L 901,385 L 902,384 L 902,380 L 903,379 L 903,374 L 904,373 L 904,367 L 905,366 L 905,346 L 904,345 L 904,339 L 903,338 L 903,335 L 902,334 L 902,331 L 901,330 L 901,328 L 900,327 L 900,325 L 899,324 L 899,323 L 898,322 L 898,320 L 897,319 L 897,318 L 896,317 L 896,316 L 894,314 L 894,313 L 893,312 L 893,311 L 891,309 L 891,308 L 889,306 L 889,305 L 886,302 L 886,301 L 873,288 L 872,288 L 869,285 L 868,285 L 865,282 L 864,282 L 862,280 L 861,280 L 859,278 L 858,278 L 857,277 L 856,277 L 855,276 L 854,276 L 853,275 L 852,275 L 851,274 L 850,274 L 849,273 L 848,273 L 847,272 L 846,272 L 845,271 L 844,271 L 843,270 L 841,270 L 840,269 L 839,269 L 838,268 L 836,268 L 835,267 L 833,267 L 832,266 L 830,266 L 829,265 Z" fill="black" />
<path d="M 675,254 L 674,255 L 661,255 L 660,256 L 651,256 L 650,257 L 643,257 L 642,258 L 636,258 L 635,259 L 630,259 L 629,260 L 623,260 L 622,261 L 617,261 L 616,262 L 612,262 L 611,263 L 607,263 L 606,264 L 602,264 L 601,265 L 597,265 L 596,266 L 593,266 L 592,267 L 588,267 L 587,268 L 584,268 L 583,269 L 579,269 L 578,270 L 575,270 L 574,271 L 571,271 L 570,272 L 568,272 L 567,273 L 564,273 L 563,274 L 560,274 L 559,275 L 557,275 L 556,276 L 553,276 L 552,277 L 550,277 L 549,278 L 547,278 L 546,279 L 543,279 L 542,280 L 540,280 L 539,281 L 537,281 L 536,282 L 534,282 L 533,283 L 531,283 L 530,284 L 528,284 L 527,285 L 525,285 L 524,286 L 522,286 L 521,287 L 519,287 L 518,288 L 516,288 L 515,289 L 513,289 L 512,290 L 511,290 L 510,291 L 508,291 L 507,292 L 505,292 L 504,293 L 502,293 L 501,294 L 500,294 L 499,295 L 497,295 L 496,296 L 495,296 L 494,297 L 492,297 L 491,298 L 489,298 L 488,299 L 487,299 L 486,300 L 484,300 L 483,301 L 482,301 L 481,302 L 480,302 L 479,303 L 477,303 L 476,304 L 475,304 L 474,305 L 472,305 L 471,306 L 470,306 L 469,307 L 468,307 L 467,308 L 466,308 L 465,309 L 463,309 L 462,310 L 461,310 L 460,311 L 459,311 L 458,312 L 457,312 L 456,313 L 454,313 L 453,314 L 452,314 L 451,315 L 450,315 L 449,316 L 448,316 L 447,317 L 446,317 L 445,318 L 444,318 L 443,319 L 442,319 L 441,320 L 440,320 L 439,321 L 438,321 L 437,322 L 436,322 L 435,323 L 434,323 L 433,324 L 432,324 L 431,325 L 430,325 L 429,326 L 428,326 L 427,327 L 426,327 L 425,328 L 424,328 L 423,329 L 422,329 L 421,330 L 420,330 L 419,331 L 418,331 L 416,333 L 415,333 L 414,334 L 413,334 L 412,335 L 411,335 L 410,336 L 409,336 L 408,337 L 407,337 L 405,339 L 404,339 L 403,340 L 402,340 L 401,341 L 400,341 L 398,343 L 397,343 L 396,344 L 395,344 L 393,346 L 392,346 L 391,347 L 390,347 L 388,349 L 387,349 L 386,350 L 385,350 L 383,352 L 382,352 L 381,353 L 380,353 L 378,355 L 377,355 L 375,357 L 374,357 L 372,359 L 371,359 L 370,360 L 369,360 L 367,362 L 366,362 L 364,364 L 363,364 L 361,366 L 360,366 L 358,368 L 357,368 L 355,370 L 354,370 L 352,372 L 351,372 L 349,374 L 348,374 L 346,376 L 345,376 L 342,379 L 341,379 L 339,381 L 338,381 L 335,384 L 334,384 L 331,387 L 330,387 L 327,390 L 326,390 L 323,393 L 322,393 L 318,397 L 317,397 L 313,401 L 312,401 L 307,406 L 306,406 L 301,411 L 300,411 L 293,418 L 292,418 L 289,421 L 305,421 L 308,418 L 309,418 L 313,414 L 314,414 L 317,411 L 318,411 L 322,407 L 323,407 L 325,405 L 326,405 L 329,402 L 330,402 L 332,400 L 333,400 L 336,397 L 337,397 L 339,395 L 340,395 L 342,393 L 343,393 L 345,391 L 346,391 L 348,389 L 349,389 L 351,387 L 352,387 L 354,385 L 355,385 L 357,383 L 358,383 L 360,381 L 361,381 L 362,380 L 363,380 L 365,378 L 366,378 L 368,376 L 369,376 L 370,375 L 371,375 L 373,373 L 374,373 L 375,372 L 376,372 L 378,370 L 379,370 L 380,369 L 381,369 L 383,367 L 384,367 L 385,366 L 386,366 L 388,364 L 389,364 L 390,363 L 391,363 L 393,361 L 394,361 L 395,360 L 396,360 L 397,359 L 398,359 L 399,358 L 400,358 L 402,356 L 403,356 L 404,355 L 405,355 L 406,354 L 407,354 L 408,353 L 409,353 L 411,351 L 412,351 L 413,350 L 414,350 L 415,349 L 416,349 L 417,348 L 418,348 L 419,347 L 420,347 L 421,346 L 422,346 L 423,345 L 424,345 L 425,344 L 426,344 L 427,343 L 428,343 L 429,342 L 430,342 L 431,341 L 432,341 L 433,340 L 434,340 L 435,339 L 436,339 L 437,338 L 438,338 L 439,337 L 440,337 L 441,336 L 442,336 L 443,335 L 444,335 L 445,334 L 446,334 L 447,333 L 449,333 L 450,332 L 451,332 L 452,331 L 453,331 L 454,330 L 455,330 L 456,329 L 457,329 L 458,328 L 459,328 L 460,327 L 462,327 L 463,326 L 464,326 L 465,325 L 466,325 L 467,324 L 469,324 L 470,323 L 471,323 L 472,322 L 474,322 L 475,321 L 476,321 L 477,320 L 478,320 L 479,319 L 481,319 L 482,318 L 483,318 L 484,317 L 486,317 L 487,316 L 488,316 L 489,315 L 491,315 L 492,314 L 493,314 L 494,313 L 496,313 L 497,312 L 499,312 L 500,311 L 501,311 L 502,310 L 504,310 L 505,309 L 507,309 L 508,308 L 509,308 L 510,307 L 512,307 L 513,306 L 515,306 L 516,305 L 518,305 L 519,304 L 521,304 L 522,303 L 523,303 L 524,302 L 526,302 L 527,301 L 529,301 L 530,300 L 532,300 L 533,299 L 536,299 L 537,298 L 539,298 L 540,297 L 542,297 L 543,296 L 545,296 L 546,295 L 550,295 L 551,294 L 554,294 L 555,293 L 559,293 L 560,292 L 564,292 L 565,291 L 569,291 L 570,290 L 574,290 L 575,289 L 579,289 L 580,288 L 584,288 L 585,287 L 589,287 L 590,286 L 595,286 L 596,285 L 601,285 L 602,284 L 607,284 L 608,283 L 612,283 L 613,282 L 619,282 L 620,281 L 626,281 L 627,280 L 633,280 L 634,279 L 652,279 L 653,278 L 682,278 L 682,254 Z" fill="black" />
<path d="M 880,249 L 880,250 L 881,250 L 885,254 L 886,254 L 906,274 L 906,275 L 910,279 L 910,280 L 912,282 L 912,283 L 914,285 L 914,286 L 916,288 L 916,289 L 918,291 L 918,292 L 919,293 L 919,294 L 920,295 L 920,296 L 921,297 L 921,298 L 922,299 L 922,301 L 923,302 L 923,303 L 924,304 L 924,305 L 925,306 L 925,308 L 926,309 L 926,311 L 927,312 L 927,314 L 928,315 L 928,318 L 929,319 L 929,323 L 930,324 L 930,330 L 931,331 L 931,351 L 930,352 L 930,360 L 929,361 L 929,366 L 928,367 L 928,371 L 927,372 L 927,376 L 926,377 L 926,379 L 925,380 L 925,383 L 924,384 L 924,386 L 923,387 L 923,390 L 922,391 L 922,392 L 921,393 L 921,395 L 920,396 L 920,398 L 919,399 L 919,400 L 918,401 L 918,402 L 917,403 L 917,405 L 916,406 L 916,407 L 915,408 L 915,409 L 913,411 L 913,412 L 912,413 L 912,414 L 910,416 L 910,417 L 923,404 L 923,403 L 926,400 L 926,399 L 928,397 L 928,396 L 930,394 L 930,393 L 932,391 L 932,390 L 933,389 L 933,388 L 934,387 L 934,386 L 935,385 L 935,384 L 936,383 L 936,381 L 937,380 L 937,379 L 938,378 L 938,377 L 939,376 L 939,373 L 940,372 L 940,370 L 941,369 L 941,366 L 942,365 L 942,361 L 943,360 L 943,355 L 944,354 L 944,331 L 943,330 L 943,325 L 942,324 L 942,321 L 941,320 L 941,317 L 940,316 L 940,314 L 939,313 L 939,311 L 938,310 L 938,308 L 937,307 L 937,306 L 936,305 L 936,303 L 935,302 L 935,301 L 934,300 L 934,299 L 933,298 L 933,297 L 931,295 L 931,294 L 930,293 L 930,292 L 928,290 L 928,289 L 925,286 L 925,285 L 920,280 L 920,279 L 913,272 L 912,272 L 906,266 L 905,266 L 902,263 L 901,263 L 899,261 L 898,261 L 895,258 L 894,258 L 893,257 L 892,257 L 890,255 L 889,255 L 887,253 L 886,253 L 885,252 L 884,252 L 882,250 L 881,250 Z" fill="black" />
<path d="M 732,218 L 731,219 L 727,219 L 726,220 L 724,220 L 723,221 L 722,221 L 721,222 L 720,222 L 719,223 L 718,223 L 716,225 L 715,225 L 706,234 L 706,235 L 704,237 L 704,238 L 703,239 L 703,240 L 702,241 L 702,242 L 701,243 L 701,244 L 700,245 L 700,247 L 699,248 L 699,250 L 698,251 L 698,255 L 697,256 L 697,279 L 698,280 L 698,286 L 699,287 L 699,291 L 700,292 L 700,295 L 701,296 L 701,299 L 702,300 L 702,302 L 703,303 L 703,305 L 704,306 L 704,308 L 705,309 L 705,310 L 706,311 L 706,312 L 707,313 L 707,314 L 708,315 L 708,316 L 709,317 L 709,318 L 710,319 L 710,320 L 711,321 L 711,322 L 713,324 L 713,325 L 715,327 L 715,328 L 717,330 L 717,331 L 723,337 L 723,338 L 724,339 L 725,339 L 729,343 L 730,343 L 731,344 L 732,344 L 733,345 L 734,345 L 735,346 L 745,346 L 746,345 L 748,345 L 749,344 L 750,344 L 751,343 L 752,343 L 753,342 L 754,342 L 755,341 L 757,341 L 758,340 L 762,340 L 763,339 L 773,339 L 774,340 L 777,340 L 778,341 L 780,341 L 781,342 L 782,342 L 783,343 L 784,343 L 785,344 L 786,344 L 787,345 L 789,345 L 790,346 L 794,346 L 795,347 L 797,347 L 798,346 L 802,346 L 803,345 L 804,345 L 805,344 L 806,344 L 808,342 L 809,342 L 813,338 L 813,337 L 817,333 L 817,332 L 819,330 L 819,329 L 821,327 L 821,326 L 822,325 L 822,324 L 824,322 L 824,321 L 825,320 L 825,319 L 826,318 L 826,317 L 827,316 L 827,315 L 828,314 L 828,312 L 829,311 L 829,309 L 830,308 L 830,306 L 831,305 L 831,302 L 832,301 L 832,300 L 830,300 L 828,298 L 827,298 L 818,289 L 818,288 L 816,286 L 816,285 L 815,284 L 815,283 L 814,282 L 814,280 L 813,279 L 813,277 L 812,276 L 812,272 L 811,271 L 811,262 L 812,261 L 812,257 L 813,256 L 813,254 L 814,253 L 814,252 L 815,251 L 815,250 L 816,249 L 816,248 L 818,246 L 818,245 L 820,243 L 820,242 L 829,233 L 823,227 L 822,227 L 820,225 L 819,225 L 817,223 L 816,223 L 815,222 L 814,222 L 813,221 L 811,221 L 810,220 L 808,220 L 807,219 L 790,219 L 789,220 L 785,220 L 784,221 L 782,221 L 781,222 L 779,222 L 778,223 L 776,223 L 775,224 L 774,224 L 773,225 L 770,225 L 769,226 L 763,226 L 762,225 L 760,225 L 759,224 L 758,224 L 757,223 L 755,223 L 754,222 L 753,222 L 752,221 L 750,221 L 749,220 L 747,220 L 746,219 L 742,219 L 741,218 Z" fill="black" />
<path d="M 632,196 L 632,201 L 631,202 L 631,205 L 630,206 L 630,207 L 629,208 L 629,209 L 624,214 L 623,214 L 622,215 L 621,215 L 620,216 L 618,216 L 617,217 L 614,217 L 614,218 L 617,218 L 618,219 L 620,219 L 621,220 L 622,220 L 623,221 L 624,221 L 625,222 L 626,222 L 628,224 L 628,225 L 630,227 L 630,229 L 631,230 L 631,233 L 632,234 L 632,239 L 633,239 L 633,236 L 634,235 L 634,231 L 635,230 L 635,228 L 636,227 L 636,226 L 641,221 L 642,221 L 643,220 L 644,220 L 645,219 L 647,219 L 648,218 L 651,218 L 651,217 L 648,217 L 647,216 L 645,216 L 644,215 L 642,215 L 640,213 L 639,213 L 637,211 L 637,210 L 635,208 L 635,206 L 634,205 L 634,202 L 633,201 L 633,196 Z" fill="black" />
<path d="M 168,196 L 167,197 L 165,197 L 164,198 L 163,198 L 162,199 L 161,199 L 157,203 L 157,204 L 155,206 L 155,207 L 154,208 L 154,210 L 153,211 L 153,215 L 152,216 L 152,238 L 153,239 L 153,245 L 154,246 L 154,250 L 155,251 L 155,255 L 156,256 L 156,257 L 155,258 L 154,258 L 153,259 L 150,259 L 149,260 L 147,260 L 146,261 L 144,261 L 143,262 L 141,262 L 140,263 L 138,263 L 137,264 L 136,264 L 135,265 L 134,265 L 133,266 L 132,266 L 131,267 L 130,267 L 129,268 L 128,268 L 127,269 L 126,269 L 124,271 L 123,271 L 121,273 L 120,273 L 111,282 L 111,283 L 110,284 L 110,285 L 109,286 L 109,287 L 108,288 L 108,291 L 107,292 L 107,296 L 108,297 L 108,300 L 109,301 L 109,302 L 110,303 L 110,304 L 112,306 L 112,307 L 117,312 L 118,312 L 121,315 L 122,315 L 124,317 L 125,317 L 126,318 L 127,318 L 128,319 L 129,319 L 130,320 L 131,320 L 132,321 L 133,321 L 134,322 L 135,322 L 136,323 L 138,323 L 139,324 L 141,324 L 142,325 L 143,325 L 144,326 L 147,326 L 148,327 L 150,327 L 151,328 L 154,328 L 155,329 L 155,331 L 154,332 L 154,336 L 153,337 L 153,342 L 152,343 L 152,351 L 151,352 L 151,368 L 152,369 L 152,374 L 153,375 L 153,377 L 154,378 L 154,380 L 155,381 L 155,382 L 157,384 L 157,385 L 160,388 L 161,388 L 163,390 L 165,390 L 166,391 L 170,391 L 171,392 L 175,392 L 176,391 L 180,391 L 181,390 L 183,390 L 184,389 L 186,389 L 187,388 L 188,388 L 189,387 L 190,387 L 191,386 L 192,386 L 193,385 L 194,385 L 196,383 L 197,383 L 199,381 L 200,381 L 203,378 L 204,378 L 209,373 L 210,373 L 218,365 L 219,365 L 227,373 L 228,373 L 232,377 L 233,377 L 236,380 L 237,380 L 239,382 L 240,382 L 242,384 L 243,384 L 244,385 L 245,385 L 247,387 L 249,387 L 250,388 L 251,388 L 252,389 L 253,389 L 254,390 L 257,390 L 258,391 L 270,391 L 271,390 L 273,390 L 274,389 L 275,389 L 281,383 L 281,382 L 282,381 L 282,380 L 283,379 L 283,378 L 284,377 L 284,374 L 285,373 L 285,366 L 286,365 L 286,355 L 285,354 L 285,344 L 284,343 L 284,337 L 283,336 L 283,332 L 282,331 L 282,330 L 283,329 L 285,329 L 286,328 L 288,328 L 289,327 L 291,327 L 292,326 L 294,326 L 295,325 L 297,325 L 298,324 L 300,324 L 301,323 L 302,323 L 303,322 L 305,322 L 306,321 L 307,321 L 308,320 L 309,320 L 310,319 L 311,319 L 313,317 L 314,317 L 315,316 L 316,316 L 326,306 L 326,305 L 328,303 L 328,302 L 329,301 L 329,299 L 330,298 L 330,290 L 329,289 L 329,287 L 328,286 L 328,285 L 327,284 L 327,283 L 325,281 L 325,280 L 320,275 L 319,275 L 316,272 L 315,272 L 314,271 L 313,271 L 311,269 L 310,269 L 309,268 L 308,268 L 307,267 L 306,267 L 305,266 L 304,266 L 303,265 L 301,265 L 300,264 L 299,264 L 298,263 L 296,263 L 295,262 L 293,262 L 292,261 L 290,261 L 289,260 L 287,260 L 286,259 L 283,259 L 282,258 L 282,254 L 283,253 L 283,249 L 284,248 L 284,242 L 285,241 L 285,216 L 284,215 L 284,211 L 283,210 L 283,208 L 282,207 L 282,206 L 281,205 L 281,204 L 276,199 L 275,199 L 274,198 L 273,198 L 272,197 L 270,197 L 269,196 L 258,196 L 257,197 L 255,197 L 254,198 L 252,198 L 251,199 L 250,199 L 249,200 L 248,200 L 247,201 L 246,201 L 245,202 L 244,202 L 243,203 L 242,203 L 240,205 L 239,205 L 237,207 L 236,207 L 233,210 L 232,210 L 227,215 L 226,215 L 219,222 L 217,222 L 209,214 L 208,214 L 204,210 L 203,210 L 200,207 L 199,207 L 197,205 L 196,205 L 194,203 L 193,203 L 192,202 L 191,202 L 189,200 L 188,200 L 187,199 L 185,199 L 184,198 L 182,198 L 181,197 L 179,197 L 178,196 Z" fill="black" />
<path d="M 792,179 L 791,180 L 789,180 L 788,181 L 787,181 L 786,182 L 785,182 L 784,183 L 783,183 L 781,185 L 780,185 L 774,191 L 774,192 L 772,194 L 772,195 L 770,197 L 770,199 L 769,200 L 769,201 L 768,202 L 768,204 L 767,205 L 767,209 L 766,210 L 766,217 L 768,217 L 769,216 L 773,216 L 774,215 L 776,215 L 777,214 L 778,214 L 779,213 L 780,213 L 781,212 L 782,212 L 783,211 L 784,211 L 787,208 L 788,208 L 790,206 L 790,205 L 794,201 L 794,200 L 795,199 L 795,198 L 796,197 L 796,196 L 797,195 L 797,194 L 798,193 L 798,190 L 799,189 L 799,179 Z" fill="black" />
<path d="M 408,175 L 408,180 L 407,181 L 407,187 L 406,188 L 406,194 L 405,195 L 405,200 L 404,201 L 404,205 L 403,206 L 403,209 L 402,210 L 402,213 L 401,214 L 401,216 L 400,217 L 400,218 L 399,219 L 399,220 L 398,221 L 398,222 L 392,228 L 391,228 L 389,230 L 388,230 L 387,231 L 385,231 L 384,232 L 382,232 L 381,233 L 379,233 L 378,234 L 375,234 L 374,235 L 370,235 L 369,236 L 365,236 L 364,237 L 359,237 L 358,238 L 354,238 L 353,239 L 355,239 L 356,240 L 361,240 L 362,241 L 367,241 L 368,242 L 373,242 L 374,243 L 378,243 L 379,244 L 382,244 L 383,245 L 385,245 L 386,246 L 388,246 L 389,247 L 390,247 L 391,248 L 392,248 L 397,253 L 397,254 L 399,256 L 399,257 L 400,258 L 400,259 L 401,260 L 401,262 L 402,263 L 402,266 L 403,267 L 403,270 L 404,271 L 404,276 L 405,277 L 405,282 L 406,283 L 406,288 L 407,289 L 407,296 L 408,297 L 408,302 L 409,301 L 409,297 L 410,296 L 410,290 L 411,289 L 411,283 L 412,282 L 412,277 L 413,276 L 413,271 L 414,270 L 414,266 L 415,265 L 415,263 L 416,262 L 416,260 L 417,259 L 417,258 L 418,257 L 418,256 L 420,254 L 420,253 L 424,249 L 425,249 L 426,248 L 427,248 L 428,247 L 429,247 L 430,246 L 432,246 L 433,245 L 435,245 L 436,244 L 439,244 L 440,243 L 443,243 L 444,242 L 448,242 L 449,241 L 453,241 L 454,240 L 459,240 L 460,239 L 464,239 L 464,238 L 462,238 L 461,237 L 456,237 L 455,236 L 451,236 L 450,235 L 446,235 L 445,234 L 441,234 L 440,233 L 437,233 L 436,232 L 434,232 L 433,231 L 431,231 L 430,230 L 429,230 L 428,229 L 427,229 L 426,228 L 425,228 L 419,222 L 419,221 L 418,220 L 418,219 L 417,218 L 417,217 L 416,216 L 416,214 L 415,213 L 415,211 L 414,210 L 414,207 L 413,206 L 413,202 L 412,201 L 412,196 L 411,195 L 411,190 L 410,189 L 410,182 L 409,181 L 409,175 Z" fill="black" />
<path d="M 536,165 L 536,167 L 535,168 L 535,174 L 534,175 L 534,180 L 533,181 L 533,185 L 532,186 L 532,188 L 531,189 L 531,191 L 530,192 L 530,193 L 528,195 L 528,196 L 523,201 L 522,201 L 520,203 L 519,203 L 518,204 L 517,204 L 516,205 L 515,205 L 514,206 L 512,206 L 511,207 L 508,207 L 507,208 L 504,208 L 503,209 L 501,209 L 502,210 L 506,210 L 507,211 L 510,211 L 511,212 L 513,212 L 514,213 L 515,213 L 516,214 L 518,214 L 520,216 L 521,216 L 522,217 L 523,217 L 528,222 L 528,223 L 530,225 L 530,226 L 531,227 L 531,229 L 532,230 L 532,232 L 533,233 L 533,237 L 534,238 L 534,243 L 535,244 L 535,250 L 536,251 L 536,254 L 537,254 L 537,248 L 538,247 L 538,242 L 539,241 L 539,236 L 540,235 L 540,232 L 541,231 L 541,228 L 542,227 L 542,226 L 543,225 L 543,224 L 544,223 L 544,222 L 549,217 L 550,217 L 551,216 L 552,216 L 554,214 L 556,214 L 557,213 L 558,213 L 559,212 L 561,212 L 562,211 L 565,211 L 566,210 L 570,210 L 571,209 L 570,209 L 569,208 L 565,208 L 564,207 L 562,207 L 561,206 L 559,206 L 558,205 L 556,205 L 555,204 L 554,204 L 553,203 L 552,203 L 550,201 L 549,201 L 545,197 L 545,196 L 543,194 L 543,193 L 542,192 L 542,191 L 541,190 L 541,188 L 540,187 L 540,184 L 539,183 L 539,179 L 538,178 L 538,172 L 537,171 L 537,165 Z" fill="black" /></svg>